<?xml version="1.0" encoding="utf-8"?>
<!-- Generator: Adobe Illustrator 19.0.0, SVG Export Plug-In . SVG Version: 6.00 Build 0)  -->
<svg version="1.1" id="Layer_1" xmlns="http://www.w3.org/2000/svg" xmlns:xlink="http://www.w3.org/1999/xlink" x="0px" y="0px"
	 viewBox="0 0 50 50" style="enable-background:new 0 0 50 50;" xml:space="preserve">
<style type="text/css">
	.st0{opacity:0.8;fill:#7CB9CE;}
	.st1{opacity:0.7;fill:#7CB9CE;}
	.st2{opacity:0.6;fill:#7CB9CE;}
	.st3{opacity:0.5;fill:#7CB9CE;}
	.st4{opacity:0.4;fill:#7CB9CE;}
	.st5{opacity:0.3;fill:#7CB9CE;}
	.st6{opacity:0.35;fill:#7CB9CE;}
	.st7{opacity:0.25;fill:#7CB9CE;}
	.st8{opacity:0.2;fill:#7CB9CE;}
	.st9{opacity:0.15;fill:#7CB9CE;}
	.st10{opacity:0.1;fill:#7CB9CE;}
</style>
<g id="XMLID_28_">
	<path id="XMLID_54_" class="st0" d="M29.8,4.4c0,2.2-1.9,4-4.1,4c-2.3,0-4.1-1.8-4.1-4c0-2.2,1.9-4,4.1-4
		C27.9,0.4,29.8,2.2,29.8,4.4z"/>
	<path id="XMLID_53_" class="st1" d="M17.8,5.1c1,1.8,0.4,4-1.4,5.1c-1.8,1-4.1,0.4-5.2-1.4c-1-1.8-0.4-4,1.4-5.1
		C14.5,2.7,16.8,3.4,17.8,5.1z"/>
	<path id="XMLID_52_" class="st2" d="M8,11.6c1.7,1,2.3,3.1,1.3,4.7c-1,1.7-3.2,2.2-4.9,1.3c-1.7-1-2.3-3.1-1.3-4.7
		C4.1,11.2,6.3,10.7,8,11.6z"/>
	<ellipse id="XMLID_51_" class="st3" cx="3" cy="25.3" rx="3" ry="2.9"/>
	<path id="XMLID_50_" class="st4" d="M4.1,33.6c1.4-0.8,3.2-0.3,4,1.1c0.8,1.4,0.3,3.1-1.1,3.9c-1.4,0.8-3.2,0.3-4-1.1
		C2.2,36.2,2.7,34.4,4.1,33.6z"/>
	<path id="XMLID_49_" class="st5" d="M10.8,42.8c0.8-1.4,2.6-1.9,4-1.1c1.4,0.8,1.9,2.6,1.1,3.9c-0.8,1.4-2.6,1.9-4,1.1
		C10.5,46,10,44.2,10.8,42.8z"/>
	<ellipse id="XMLID_48_" class="st6" cx="24.3" cy="47.5" rx="3" ry="2.9"/>
	<path id="XMLID_47_" class="st7" d="M32.9,46.4c-0.8-1.4-0.3-3.2,1.1-4c1.4-0.8,3.2-0.3,4,1.1c0.8,1.4,0.3,3.2-1.1,3.9
		C35.5,48.2,33.7,47.7,32.9,46.4z"/>
	<path id="XMLID_46_" class="st8" d="M42.3,39.8c-1.4-0.8-1.9-2.6-1.1-3.9c0.8-1.4,2.6-1.9,4-1.1c1.4,0.8,1.9,2.6,1.1,3.9
		C45.5,40.1,43.7,40.6,42.3,39.8z"/>
	<ellipse id="XMLID_45_" class="st9" cx="47" cy="26.6" rx="3" ry="2.9"/>
	<path id="XMLID_44_" class="st10" d="M45.9,18.2c-1.4,0.8-3.2,0.3-4-1.1c-0.8-1.4-0.3-3.2,1.1-3.9c1.4-0.8,3.2-0.3,4,1.1
		C47.8,15.7,47.3,17.4,45.9,18.2z"/>
</g>
</svg>
