<?xml version="1.0" encoding="utf-8"?>
<svg version="1.1" xmlns="http://www.w3.org/2000/svg" style="display:none">
<style type="text/css">
	.st0{display:none;}
	.st1{display:inline;}
	.st2{fill:#FFFFFF;}
	.st3{fill:#D6D6D6;}
	.st4{fill:#7F7F7F;}
</style>
<symbol id="play" viewbox="0 0 32 32">
	<path d="M27.5,32h-23C2,32,0,30,0,27.5v-23C0,2,2,0,4.5,0h23C30,0,32,2,32,4.5v23C32,30,30,32,27.5,32z"/>
	<path class="st2" d="M5.2,2.3v27.4L26.8,16L5.2,2.3z"/>
</symbol>

<symbol id="pause" viewbox="0 0 32 32">
	<path d="M27.5,32h-23C2,32,0,30,0,27.5v-23C0,2,2,0,4.5,0h23C30,0,32,2,32,4.5v23C32,30,30,32,27.5,32z"/>
	<polyline class="st2" points="12.1,29.7 12.1,2.3 8.2,2.3 8.2,29.7"/>
	<polyline class="st2" points="23.8,29.7 23.8,2.3 19.9,2.3 19.9,29.7"/>
</symbol>

<symbol id="volume" viewbox="0 0 32 32">
	<path d="M26,32H6c-3.3,0-6-2.7-6-6V6c0-3.3,2.7-6,6-6h20c3.3,0,6,2.7,6,6v20C32,29.3,29.3,32,26,32z"/>
	<path class="st2" d="M2.3,11.4v9.1h6.1l7.6,7.6V3.8l-7.6,7.6H2.3z M22.9,16c0-2.7-1.6-5-3.8-6.1v12.3
		C21.3,21,22.9,18.7,22.9,16z M19,2.6v3.1c4.4,1.3,7.6,5.4,7.6,10.2s-3.2,8.9-7.6,10.2v3.1C25.2,28,29.7,22.5,29.7,16
		S25.2,4,19,2.6z"/>
</symbol>

<symbol id="mute" viewbox="0 0 32 32">
	<path d="M26,32H6c-3.3,0-6-2.7-6-6V6c0-3.3,2.7-6,6-6h20c3.3,0,6,2.7,6,6v20C32,29.3,29.3,32,26,32z"/>
	<path class="st2" d="M22.9,16c0-2.7-1.6-5-3.8-6.1v3.4l3.7,3.7C22.8,16.7,22.9,16.3,22.9,16z M26.7,16
		c0,1.4-0.3,2.8-0.8,4l2.3,2.3c1-1.9,1.6-4,1.6-6.3c0-6.5-4.6-12-10.7-13.4v3.1C23.5,7.1,26.7,11.2,26.7,16z M4.2,2.3L2.3,4.2
		l7.2,7.2H2.3v9.1h6.1l7.6,7.6V17.9l6.5,6.5c-1,0.8-2.2,1.4-3.4,1.8v3.1c2.1-0.5,4-1.4,5.6-2.8l3.1,3.1l1.9-1.9L16,14.1L4.2,2.3z
			M16,3.8L12.8,7l3.2,3.2V3.8z"/>
</symbol>

<symbol id="fullscreen" viewbox="0 0 32 32">
	<path d="M27.5,32h-23C2,32,0,30,0,27.5v-23C0,2,2,0,4.5,0h23C30,0,32,2,32,4.5v23C32,30,30,32,27.5,32z"/>
	<path class="st2" d="M6.2,19.9H2.3v9.8h9.8v-3.9H6.2V19.9z M2.3,12.1h3.9V6.2h5.9V2.3H2.3V12.1z M25.8,25.8
			h-5.9v3.9h9.8v-9.8h-3.9V25.8z M19.9,2.3v3.9h5.9v5.9h3.9V2.3H19.9z"/>
</symbol>

<symbol id="normalscreen" viewbox="0 0 32 32">
	<path d="M27.5,32h-23C2,32,0,30,0,27.5v-23C0,2,2,0,4.5,0h23C30,0,32,2,32,4.5v23C32,30,30,32,27.5,32z"/>
	<path class="st2" d="M2.3,23.8h5.9v5.9h3.9v-9.8H2.3V23.8z M8.2,8.2H2.3v3.9h9.8V2.3H8.2V8.2z M19.9,29.7h3.9
			v-5.9h5.9v-3.9h-9.8V29.7z M23.8,8.2V2.3h-3.9v9.8h9.8V8.2H23.8z"/>
</symbol>

<symbol id="profile" viewbox="0 0 32 32">
	<path class="st3" d="M26,32H6c-3.3,0-6-2.7-6-6V6c0-3.3,2.7-6,6-6h20c3.3,0,6,2.7,6,6v20C32,29.3,29.3,32,26,32z"/>
	<path class="st4" d="M19.3,21.3c-0.7-0.1-0.7-1.9-0.7-1.9s2-1.9,2.4-4.5c1.1,0,1.9-2.8,0.7-3.7
		c0-1,1.5-8.1-5.8-8.1c-7.2,0-5.8,7-5.8,8.1c-1.1,1-0.4,3.7,0.7,3.7c0.4,2.6,2.4,4.5,2.4,4.5s0,1.8-0.7,1.9
		C10.5,21.6,2.5,25.1,2.5,29h27C29.5,25.1,21.5,21.6,19.3,21.3L19.3,21.3z M19.3,21.3"/>
</symbol>

<symbol id="bigplay" viewbox="0 0 32 32" preserveAspectRatio="none">
	<path display="inline" opacity="0.7" fill="#000000" d="M27.2,0H4.8C2.2,0,0,2.9,0,6.4v19.2C0,29.1,2.1,32,4.8,32
		h22.4c2.7,0,4.8-2.9,4.8-6.4V6.4C32,2.9,29.9,0,27.2,0z M11,25.9V6.2L23.3,16L11,25.9z"/>
</symbol>
</svg>
